<svg xmlns="http://www.w3.org/2000/svg" viewBox="0 0 2224 2122"><defs><style>.cls-1,.cls-2{fill:#e6e6e6;}.cls-2,.cls-3{stroke:#e6e6e6;stroke-miterlimit:10;}.cls-2{stroke-width:10px;}.cls-3{fill:none;stroke-width:40px;}</style></defs><title>Asset 1</title><g id="Layer_2" data-name="Layer 2"><g id="remade"><polygon class="cls-1" points="1045.51 1464.59 672 1091.08 672 389.91 1041 20.91 1045.51 1464.59"/><polygon class="cls-1" points="1178.49 20.91 1552 394.42 1552 1095.59 1183 1464.59 1178.49 20.91"/><path class="cls-1" d="M2185,872,1632,428V644l330,267h0c48.46,448.13-246.33,861.55-685.8,961.75L1183,1894v210l143.27-38.65c5.71-1.54,11.46-2.9,17.24-4.15C1802.69,1961.8,2185,1549.52,2185,1156"/><path class="cls-1" d="M32,862,593,428V644L263,911h0c-48.46,448.13,246.33,835.55,685.8,935.75L1042,1868v236l-145.27-23.65c-5.71-1.54-11.46-2.9-17.24-4.15C420.31,1976.8,35,1544.52,35,1151"/><path class="cls-2" d="M1112,1076,568.5,528.5M1788,1748l-676-672"/><path class="cls-2" d="M1112,1076l550.5-546.5M444,1748l668-672"/><line class="cls-2" x1="1112" y1="20" x2="1112" y2="2102"/><line class="cls-2" x1="239" y1="1076" x2="2043" y2="1076"/><path class="cls-2" d="M1112.13,1077,392.44,799.15m1611.17,615.21L1112.13,1077"/><path class="cls-2" d="M1112.13,1077l279.35-723.65M776.77,1963.18,1112.13,1077"/><line class="cls-2" x1="799" y1="376" x2="1532" y2="2016"/><line class="cls-2" x1="315.23" y1="1433.47" x2="1894" y2="727"/><circle class="cls-1" cx="1112" cy="1077" r="40"/><ellipse class="cls-3" cx="1112" cy="1061" rx="1092" ry="1041"/></g></g></svg>